<svg width="125" height="125" viewBox="0 0 125 125" fill="none" xmlns="http://www.w3.org/2000/svg">
<path d="M125 62.5C125 97.0178 97.0178 125 62.5 125C27.9822 125 0 97.0178 0 62.5C0 27.9822 27.9822 0 62.5 0C97.0178 0 125 27.9822 125 62.5ZM11.4099 62.5C11.4099 90.7163 34.2837 113.59 62.5 113.59C90.7163 113.59 113.59 90.7163 113.59 62.5C113.59 34.2837 90.7163 11.4099 62.5 11.4099C34.2837 11.4099 11.4099 34.2837 11.4099 62.5Z" fill="#974137"/>
<path d="M37.2322 60.2322C36.2559 61.2085 36.2559 62.7915 37.2322 63.7678L53.1421 79.6777C54.1184 80.654 55.7014 80.654 56.6777 79.6777C57.654 78.7014 57.654 77.1184 56.6777 76.1421L42.5355 62L56.6777 47.8579C57.654 46.8816 57.654 45.2986 56.6777 44.3223C55.7014 43.346 54.1184 43.346 53.1421 44.3223L37.2322 60.2322ZM39 64.5L85 64.5V59.5L39 59.5V64.5Z" fill="#974137"/>
</svg>
