<svg width="125" height="125" viewBox="0 0 125 125" fill="none" xmlns="http://www.w3.org/2000/svg">
<path d="M125 62.5C125 97.0178 97.0178 125 62.5 125C27.9822 125 0 97.0178 0 62.5C0 27.9822 27.9822 0 62.5 0C97.0178 0 125 27.9822 125 62.5ZM6.401 62.5C6.401 93.4826 31.5174 118.599 62.5 118.599C93.4826 118.599 118.599 93.4826 118.599 62.5C118.599 31.5174 93.4826 6.401 62.5 6.401C31.5174 6.401 6.401 31.5174 6.401 62.5Z" fill="#9DB7A5"/>
<path d="M37.2322 60.2322C36.2559 61.2085 36.2559 62.7915 37.2322 63.7678L53.1421 79.6777C54.1184 80.654 55.7014 80.654 56.6777 79.6777C57.654 78.7014 57.654 77.1184 56.6777 76.1421L42.5355 62L56.6777 47.8579C57.654 46.8816 57.654 45.2986 56.6777 44.3223C55.7014 43.346 54.1184 43.346 53.1421 44.3223L37.2322 60.2322ZM39 64.5L85 64.5V59.5L39 59.5V64.5Z" fill="#9DB7A5"/>
</svg>
