<svg width="99" height="46" viewBox="0 0 99 46" fill="none" xmlns="http://www.w3.org/2000/svg">
<path d="M97.0607 24.0607C97.6464 23.4749 97.6464 22.5251 97.0607 21.9393L87.5147 12.3934C86.9289 11.8076 85.9792 11.8076 85.3934 12.3934C84.8076 12.9792 84.8076 13.9289 85.3934 14.5147L93.8787 23L85.3934 31.4853C84.8076 32.0711 84.8076 33.0208 85.3934 33.6066C85.9792 34.1924 86.9289 34.1924 87.5147 33.6066L97.0607 24.0607ZM0 24.5H3L3 21.5H0L0 24.5ZM9 24.5H15V21.5H9V24.5ZM21 24.5L27 24.5V21.5L21 21.5V24.5ZM33 24.5L39 24.5V21.5L33 21.5V24.5ZM45 24.5L51 24.5V21.5L45 21.5V24.5ZM57 24.5H63V21.5H57V24.5ZM69 24.5H75V21.5H69V24.5ZM81 24.5H87V21.5H81V24.5ZM93 24.5L96 24.5V21.5L93 21.5V24.5ZM98.1213 25.1213C99.2929 23.9497 99.2929 22.0503 98.1213 20.8787L79.0294 1.7868C77.8579 0.615223 75.9584 0.615223 74.7868 1.7868C73.6152 2.95837 73.6152 4.85786 74.7868 6.02944L91.7574 23L74.7868 39.9706C73.6152 41.1421 73.6152 43.0416 74.7868 44.2132C75.9584 45.3848 77.8579 45.3848 79.0294 44.2132L98.1213 25.1213ZM0 26H3L3 20H0L0 26ZM9 26H15V20H9V26ZM21 26H27V20H21V26ZM33 26L39 26V20L33 20V26ZM45 26L51 26V20L45 20V26ZM57 26H63V20H57V26ZM69 26H75V20H69V26ZM81 26H87V20H81V26ZM93 26L96 26V20L93 20V26Z" fill="white"/>
</svg>
