<svg width="125" height="125" viewBox="0 0 125 125" fill="none" xmlns="http://www.w3.org/2000/svg">
<path d="M125 62.5C125 97.0178 97.0178 125 62.5 125C27.9822 125 0 97.0178 0 62.5C0 27.9822 27.9822 0 62.5 0C97.0178 0 125 27.9822 125 62.5ZM11.4099 62.5C11.4099 90.7163 34.2837 113.59 62.5 113.59C90.7163 113.59 113.59 90.7163 113.59 62.5C113.59 34.2837 90.7163 11.4099 62.5 11.4099C34.2837 11.4099 11.4099 34.2837 11.4099 62.5Z" fill="#FBDA54"/>
<path d="M86.7678 63.7678C87.7441 62.7915 87.7441 61.2085 86.7678 60.2322L70.8579 44.3223C69.8816 43.346 68.2986 43.346 67.3223 44.3223C66.346 45.2986 66.346 46.8816 67.3223 47.8579L81.4645 62L67.3223 76.1421C66.346 77.1184 66.346 78.7014 67.3223 79.6777C68.2986 80.654 69.8816 80.654 70.8579 79.6777L86.7678 63.7678ZM39 64.5L85 64.5V59.5L39 59.5V64.5Z" fill="#FBDA54"/>
</svg>
