<svg width="240" height="62" viewBox="0 0 240 62" fill="none" xmlns="http://www.w3.org/2000/svg">
<path d="M8.07063 61H0.967133L21.5126 5.0463H28.5068L49.0524 61H41.9489L25.2283 13.8983H24.7912L8.07063 61ZM10.6935 39.1431H39.326V45.1537H10.6935V39.1431ZM55.4728 49.5251V43.9516L80.0619 5.0463H84.1054V13.6798H81.3733L62.7949 43.0773V43.5145H95.9081V49.5251H55.4728ZM81.8104 61V47.8312V45.2357V5.0463H88.2582V61H81.8104Z" fill="#9DB7A5"/>
<path d="M117.361 30.2948V7.2139H119.852V9.8805H120.158C120.348 9.589 120.61 9.2175 120.945 8.7658C121.287 8.3068 121.776 7.8988 122.409 7.5418C123.051 7.1775 123.918 6.9954 125.01 6.9954C126.424 6.9954 127.67 7.3487 128.748 8.0554C129.826 8.7621 130.668 9.7639 131.272 11.0607C131.877 12.3576 132.179 13.8876 132.179 15.6507C132.179 17.4284 131.877 18.9693 131.272 20.2734C130.668 21.5702 129.83 22.5757 128.759 23.2897C127.688 23.9964 126.453 24.3497 125.054 24.3497C123.976 24.3497 123.113 24.1712 122.464 23.8142C121.816 23.4499 121.317 23.0383 120.967 22.5793C120.617 22.113 120.348 21.7269 120.158 21.4209H119.94V30.2948H117.361ZM119.896 15.607C119.896 16.8747 120.082 17.993 120.453 18.962C120.825 19.9237 121.368 20.6778 122.082 21.2242C122.796 21.7633 123.67 22.0329 124.704 22.0329C125.783 22.0329 126.682 21.7487 127.404 21.1805C128.132 20.6049 128.679 19.8326 129.043 18.8636C129.415 17.8874 129.6 16.8018 129.6 15.607C129.6 14.4267 129.418 13.363 129.054 12.4159C128.697 11.4614 128.154 10.7074 127.426 10.1537C126.704 9.5927 125.797 9.3122 124.704 9.3122C123.655 9.3122 122.774 9.5781 122.06 10.11C121.346 10.6345 120.807 11.3704 120.442 12.3175C120.078 13.2573 119.896 14.3538 119.896 15.607ZM136.114 24V7.2139H138.605V9.7493H138.78C139.086 8.9188 139.64 8.2448 140.441 7.7276C141.243 7.2103 142.146 6.9516 143.152 6.9516C143.341 6.9516 143.578 6.9553 143.862 6.9626C144.146 6.9699 144.361 6.9808 144.507 6.9954V9.6182C144.419 9.5963 144.219 9.5635 143.906 9.5198C143.6 9.4688 143.276 9.4433 142.933 9.4433C142.117 9.4433 141.389 9.6145 140.747 9.957C140.114 10.2921 139.611 10.7584 139.239 11.3558C138.875 11.9459 138.693 12.6199 138.693 13.3776V24H136.114ZM153.872 24.3497C152.357 24.3497 151.027 23.9891 149.884 23.2678C148.747 22.5465 147.858 21.5375 147.217 20.2406C146.583 18.9438 146.266 17.4284 146.266 15.6944C146.266 13.9458 146.583 12.4195 147.217 11.1154C147.858 9.8112 148.747 8.7985 149.884 8.0773C151.027 7.356 152.357 6.9954 153.872 6.9954C155.388 6.9954 156.714 7.356 157.85 8.0773C158.994 8.7985 159.883 9.8112 160.517 11.1154C161.158 12.4195 161.479 13.9458 161.479 15.6944C161.479 17.4284 161.158 18.9438 160.517 20.2406C159.883 21.5375 158.994 22.5465 157.85 23.2678C156.714 23.9891 155.388 24.3497 153.872 24.3497ZM153.872 22.0329C155.024 22.0329 155.971 21.7378 156.714 21.1477C157.457 20.5575 158.007 19.7816 158.364 18.8199C158.721 17.8582 158.9 16.8164 158.9 15.6944C158.9 14.5724 158.721 13.5269 158.364 12.5579C158.007 11.5889 157.457 10.8057 156.714 10.2083C155.971 9.6109 155.024 9.3122 153.872 9.3122C152.721 9.3122 151.774 9.6109 151.031 10.2083C150.288 10.8057 149.738 11.5889 149.381 12.5579C149.024 13.5269 148.845 14.5724 148.845 15.6944C148.845 16.8164 149.024 17.8582 149.381 18.8199C149.738 19.7816 150.288 20.5575 151.031 21.1477C151.774 21.7378 152.721 22.0329 153.872 22.0329ZM165.416 7.2139H167.995V25.224C167.995 26.2585 167.816 27.1547 167.459 27.9124C167.11 28.6701 166.578 29.2566 165.864 29.6719C165.157 30.0871 164.264 30.2948 163.186 30.2948C163.099 30.2948 163.011 30.2948 162.924 30.2948C162.836 30.2948 162.749 30.2948 162.662 30.2948V27.8905C162.749 27.8905 162.829 27.8905 162.902 27.8905C162.975 27.8905 163.055 27.8905 163.142 27.8905C163.929 27.8905 164.505 27.6574 164.869 27.1911C165.233 26.7321 165.416 26.0764 165.416 25.224V7.2139ZM166.683 4.4162C166.181 4.4162 165.747 4.245 165.383 3.9026C165.026 3.5602 164.847 3.1485 164.847 2.6677C164.847 2.1868 165.026 1.7752 165.383 1.4328C165.747 1.0904 166.181 0.919098 166.683 0.919098C167.186 0.919098 167.616 1.0904 167.973 1.4328C168.337 1.7752 168.519 2.1868 168.519 2.6677C168.519 3.1485 168.337 3.5602 167.973 3.9026C167.616 4.245 167.186 4.4162 166.683 4.4162ZM179.756 24.3497C178.139 24.3497 176.744 23.9927 175.571 23.2787C174.405 22.5574 173.505 21.552 172.872 20.2625C172.245 18.9656 171.932 17.4575 171.932 15.7381C171.932 14.0187 172.245 12.5033 172.872 11.1919C173.505 9.8732 174.387 8.8459 175.516 8.1101C176.653 7.3669 177.979 6.9954 179.494 6.9954C180.368 6.9954 181.232 7.1411 182.084 7.4325C182.937 7.7239 183.713 8.1975 184.412 8.8532C185.111 9.5016 185.669 10.3613 186.084 11.4323C186.499 12.5033 186.707 13.822 186.707 15.3884V16.4812H173.768V14.2518H184.084C184.084 13.3047 183.895 12.4596 183.516 11.7164C183.144 10.9733 182.612 10.3868 181.92 9.957C181.235 9.5271 180.427 9.3122 179.494 9.3122C178.467 9.3122 177.578 9.5672 176.828 10.0772C176.084 10.5799 175.513 11.2356 175.112 12.0443C174.711 12.853 174.511 13.72 174.511 14.6453V16.1315C174.511 17.3992 174.729 18.4739 175.166 19.3554C175.611 20.2297 176.227 20.8963 177.013 21.3553C177.8 21.807 178.715 22.0329 179.756 22.0329C180.434 22.0329 181.046 21.9382 181.592 21.7487C182.146 21.552 182.623 21.2606 183.024 20.8745C183.425 20.481 183.734 19.9929 183.953 19.4101L186.445 20.1095C186.182 20.9546 185.742 21.6977 185.122 22.3389C184.503 22.9727 183.738 23.4681 182.827 23.8251C181.917 24.1749 180.893 24.3497 179.756 24.3497ZM193.034 17.8801L192.991 14.689H193.515L200.859 7.2139H204.05L196.226 15.1261H196.007L193.034 17.8801ZM190.63 24V1.6186H193.209V24H190.63ZM201.296 24L194.739 15.6944L196.575 13.9021L204.575 24H201.296ZM214.67 7.2139V9.3996H205.971V7.2139H214.67ZM208.506 3.1923H211.086V19.1915C211.086 19.9201 211.191 20.4665 211.402 20.8308C211.621 21.1877 211.898 21.4282 212.233 21.552C212.575 21.6686 212.936 21.7269 213.315 21.7269C213.599 21.7269 213.832 21.7123 214.014 21.6832C214.196 21.6467 214.342 21.6176 214.451 21.5957L214.976 23.9126C214.801 23.9781 214.557 24.0437 214.244 24.1093C213.931 24.1821 213.533 24.2186 213.053 24.2186C212.324 24.2186 211.61 24.0619 210.911 23.7486C210.219 23.4354 209.643 22.9582 209.184 22.317C208.732 21.6759 208.506 20.8672 208.506 19.8909V3.1923ZM221.129 13.9021V24H218.55V7.2139H221.041V9.8367H221.26C221.653 8.9843 222.251 8.2995 223.052 7.7822C223.854 7.2576 224.888 6.9954 226.156 6.9954C227.292 6.9954 228.287 7.2285 229.139 7.6948C229.992 8.1538 230.655 8.8532 231.128 9.793C231.602 10.7256 231.839 11.9059 231.839 13.3338V24H229.26V13.5087C229.26 12.19 228.917 11.1627 228.232 10.4269C227.547 9.6838 226.608 9.3122 225.413 9.3122C224.589 9.3122 223.854 9.4907 223.205 9.8477C222.564 10.2047 222.058 10.7256 221.686 11.4104C221.315 12.0953 221.129 12.9259 221.129 13.9021ZM236.552 24V7.2139H239.131V24H236.552ZM237.863 4.4162C237.36 4.4162 236.927 4.245 236.562 3.9026C236.205 3.5602 236.027 3.1485 236.027 2.6677C236.027 2.1868 236.205 1.7752 236.562 1.4328C236.927 1.0904 237.36 0.919098 237.863 0.919098C238.366 0.919098 238.795 1.0904 239.152 1.4328C239.517 1.7752 239.699 2.1868 239.699 2.6677C239.699 3.1485 239.517 3.5602 239.152 3.9026C238.795 4.245 238.366 4.4162 237.863 4.4162ZM117.71 61V38.6186H120.289V46.8805H120.508C120.697 46.589 120.96 46.2175 121.295 45.7658C121.637 45.3068 122.125 44.8988 122.759 44.5418C123.4 44.1775 124.267 43.9954 125.36 43.9954C126.774 43.9954 128.019 44.3487 129.098 45.0554C130.176 45.7621 131.017 46.7639 131.622 48.0607C132.227 49.3576 132.529 50.8876 132.529 52.6507C132.529 54.4284 132.227 55.9693 131.622 57.2734C131.017 58.5702 130.18 59.5757 129.109 60.2897C128.038 60.9964 126.803 61.3497 125.404 61.3497C124.326 61.3497 123.462 61.1712 122.814 60.8142C122.165 60.4499 121.666 60.0383 121.317 59.5793C120.967 59.113 120.697 58.7269 120.508 58.4209H120.202V61H117.71ZM120.246 52.607C120.246 53.8747 120.431 54.993 120.803 55.962C121.175 56.9237 121.717 57.6778 122.431 58.2242C123.145 58.7633 124.02 59.0329 125.054 59.0329C126.132 59.0329 127.032 58.7487 127.753 58.1805C128.482 57.6049 129.028 56.8326 129.393 55.8636C129.764 54.8874 129.95 53.8018 129.95 52.607C129.95 51.4267 129.768 50.363 129.404 49.4159C129.047 48.4614 128.504 47.7074 127.775 47.1537C127.054 46.5927 126.147 46.3122 125.054 46.3122C124.005 46.3122 123.123 46.5781 122.409 47.11C121.695 47.6345 121.156 48.3704 120.792 49.3175C120.428 50.2573 120.246 51.3538 120.246 52.607ZM136.474 61V44.2139H139.053V61H136.474ZM137.786 41.4162C137.283 41.4162 136.85 41.245 136.485 40.9026C136.128 40.5602 135.95 40.1485 135.95 39.6677C135.95 39.1868 136.128 38.7752 136.485 38.4328C136.85 38.0904 137.283 37.9191 137.786 37.9191C138.288 37.9191 138.718 38.0904 139.075 38.4328C139.44 38.7752 139.622 39.1868 139.622 39.6677C139.622 40.1485 139.44 40.5602 139.075 40.9026C138.718 41.245 138.288 41.4162 137.786 41.4162ZM143.777 61V44.2139H146.269V46.7493H146.444C146.75 45.9188 147.304 45.2448 148.105 44.7276C148.906 44.2103 149.81 43.9516 150.815 43.9516C151.005 43.9516 151.241 43.9553 151.526 43.9626C151.81 43.9699 152.025 43.9808 152.17 43.9954V46.6182C152.083 46.5963 151.883 46.5635 151.569 46.5198C151.263 46.4688 150.939 46.4433 150.597 46.4433C149.781 46.4433 149.052 46.6145 148.411 46.957C147.777 47.2921 147.274 47.7584 146.903 48.3558C146.539 48.9459 146.356 49.6199 146.356 50.3776V61H143.777ZM161.536 61.3497C160.021 61.3497 158.691 60.9891 157.547 60.2678C156.411 59.5465 155.522 58.5375 154.881 57.2406C154.247 55.9438 153.93 54.4284 153.93 52.6944C153.93 50.9458 154.247 49.4195 154.881 48.1154C155.522 46.8112 156.411 45.7985 157.547 45.0773C158.691 44.356 160.021 43.9954 161.536 43.9954C163.051 43.9954 164.377 44.356 165.514 45.0773C166.658 45.7985 167.547 46.8112 168.18 48.1154C168.822 49.4195 169.142 50.9458 169.142 52.6944C169.142 54.4284 168.822 55.9438 168.18 57.2406C167.547 58.5375 166.658 59.5465 165.514 60.2678C164.377 60.9891 163.051 61.3497 161.536 61.3497ZM161.536 59.0329C162.687 59.0329 163.634 58.7378 164.377 58.1477C165.121 57.5575 165.671 56.7816 166.028 55.8199C166.385 54.8582 166.563 53.8164 166.563 52.6944C166.563 51.5724 166.385 50.5269 166.028 49.5579C165.671 48.5889 165.121 47.8057 164.377 47.2083C163.634 46.6109 162.687 46.3122 161.536 46.3122C160.385 46.3122 159.438 46.6109 158.695 47.2083C157.951 47.8057 157.401 48.5889 157.044 49.5579C156.687 50.5269 156.509 51.5724 156.509 52.6944C156.509 53.8164 156.687 54.8582 157.044 55.8199C157.401 56.7816 157.951 57.5575 158.695 58.1477C159.438 58.7378 160.385 59.0329 161.536 59.0329Z" fill="black"/>
</svg>
