<svg width="288" height="73" viewBox="0 0 288 73" fill="none" xmlns="http://www.w3.org/2000/svg">
<rect width="288" height="73" fill="#F5F5F5"/>
<rect width="288" height="73" fill="white"/>
<path d="M39.125 17.5312L24.0625 59H17.9062L35.25 13.5H39.2188L39.125 17.5312ZM51.75 59L36.6562 17.5312L36.5625 13.5H40.5312L57.9375 59H51.75ZM50.9688 42.1562V47.0938H25.4062V42.1562H50.9688ZM93.2812 43.6875V48.4375H60.4062V45.0312L80.7812 13.5H85.5L80.4375 22.625L66.9688 43.6875H93.2812ZM86.9375 13.5V59H81.1562V13.5H86.9375Z" fill="#A3AEB2"/>
<path d="M119.802 15.041L115.095 28H113.172L118.592 13.7812H119.832L119.802 15.041ZM123.748 28L119.031 15.041L119.002 13.7812H120.242L125.681 28H123.748ZM123.504 22.7363V24.2793H115.515V22.7363H123.504ZM127.586 13.7812H132.293C133.36 13.7812 134.262 13.944 134.998 14.2695C135.74 14.5951 136.303 15.0768 136.687 15.7148C137.078 16.3464 137.273 17.1243 137.273 18.0488C137.273 18.6999 137.14 19.2956 136.873 19.8359C136.612 20.3698 136.235 20.8255 135.74 21.2031C135.252 21.5742 134.666 21.8509 133.982 22.0332L133.455 22.2383H129.031L129.011 20.7051H132.351C133.028 20.7051 133.592 20.5879 134.041 20.3535C134.49 20.1126 134.829 19.7904 135.056 19.3867C135.284 18.9831 135.398 18.5371 135.398 18.0488C135.398 17.502 135.291 17.0234 135.076 16.6133C134.861 16.2031 134.523 15.8874 134.06 15.666C133.605 15.4382 133.015 15.3242 132.293 15.3242H129.47V28H127.586V13.7812ZM135.896 28L132.439 21.5547L134.402 21.5449L137.908 27.8828V28H135.896ZM149.197 19.8945V21.4277H141.502V19.8945H149.197ZM141.795 13.7812V28H139.91V13.7812H141.795ZM150.838 13.7812V28H148.963V13.7812H150.838ZM156.209 13.7812V28H154.324V13.7812H156.209ZM164.597 13.7812V28H162.742V13.7812H164.597ZM169.168 13.7812V15.3242H158.181V13.7812H169.168ZM180.31 26.4668V28H172.781V26.4668H180.31ZM173.162 13.7812V28H171.277V13.7812H173.162ZM179.314 19.8945V21.4277H172.781V19.8945H179.314ZM180.213 13.7812V15.3242H172.781V13.7812H180.213ZM184.529 13.7812V28H182.644V13.7812H184.529ZM193.113 13.7812L187.205 20.4121L183.885 23.8594L183.572 21.8477L186.072 19.0938L190.847 13.7812H193.113ZM191.297 28L186.033 21.0664L187.156 19.5723L193.543 28H191.297ZM200.457 13.7812V28H198.601V13.7812H200.457ZM205.027 13.7812V15.3242H194.041V13.7812H205.027ZM217.81 20.4414V21.3398C217.81 22.4076 217.677 23.3646 217.41 24.2109C217.143 25.0573 216.759 25.7767 216.258 26.3691C215.756 26.9616 215.154 27.4141 214.451 27.7266C213.754 28.0391 212.973 28.1953 212.107 28.1953C211.267 28.1953 210.496 28.0391 209.793 27.7266C209.096 27.4141 208.491 26.9616 207.976 26.3691C207.469 25.7767 207.075 25.0573 206.795 24.2109C206.515 23.3646 206.375 22.4076 206.375 21.3398V20.4414C206.375 19.3737 206.511 18.4199 206.785 17.5801C207.065 16.7337 207.459 16.0143 207.967 15.4219C208.474 14.8229 209.077 14.3672 209.773 14.0547C210.476 13.7422 211.248 13.5859 212.088 13.5859C212.954 13.5859 213.735 13.7422 214.431 14.0547C215.135 14.3672 215.737 14.8229 216.238 15.4219C216.746 16.0143 217.133 16.7337 217.4 17.5801C217.674 18.4199 217.81 19.3737 217.81 20.4414ZM215.945 21.3398V20.4219C215.945 19.5755 215.857 18.8268 215.681 18.1758C215.512 17.5247 215.261 16.9779 214.929 16.5352C214.597 16.0924 214.191 15.7572 213.709 15.5293C213.233 15.3014 212.693 15.1875 212.088 15.1875C211.502 15.1875 210.971 15.3014 210.496 15.5293C210.027 15.7572 209.623 16.0924 209.285 16.5352C208.953 16.9779 208.696 17.5247 208.513 18.1758C208.331 18.8268 208.24 19.5755 208.24 20.4219V21.3398C208.24 22.1927 208.331 22.9479 208.513 23.6055C208.696 24.2565 208.956 24.8066 209.295 25.2559C209.64 25.6986 210.047 26.0339 210.515 26.2617C210.991 26.4896 211.521 26.6035 212.107 26.6035C212.719 26.6035 213.263 26.4896 213.738 26.2617C214.213 26.0339 214.614 25.6986 214.939 25.2559C215.271 24.8066 215.522 24.2565 215.691 23.6055C215.86 22.9479 215.945 22.1927 215.945 21.3398ZM231.57 13.7812V28H229.676L222.517 17.0332V28H220.633V13.7812H222.517L229.705 24.7773V13.7812H231.57ZM242.488 24.4062C242.488 24.0742 242.436 23.7812 242.332 23.5273C242.234 23.2669 242.058 23.0326 241.804 22.8242C241.557 22.6159 241.212 22.4173 240.769 22.2285C240.333 22.0397 239.78 21.8477 239.109 21.6523C238.406 21.444 237.771 21.2129 237.205 20.959C236.638 20.6986 236.153 20.4023 235.75 20.0703C235.346 19.7383 235.037 19.3574 234.822 18.9277C234.607 18.498 234.5 18.0065 234.5 17.4531C234.5 16.8997 234.614 16.3887 234.842 15.9199C235.069 15.4512 235.395 15.0443 235.818 14.6992C236.248 14.3477 236.759 14.0742 237.351 13.8789C237.944 13.6836 238.605 13.5859 239.334 13.5859C240.401 13.5859 241.306 13.791 242.049 14.2012C242.797 14.6048 243.367 15.1354 243.758 15.793C244.148 16.444 244.344 17.1406 244.344 17.8828H242.469C242.469 17.349 242.355 16.877 242.127 16.4668C241.899 16.0501 241.554 15.7246 241.092 15.4902C240.629 15.2493 240.043 15.1289 239.334 15.1289C238.663 15.1289 238.11 15.2298 237.674 15.4316C237.237 15.6335 236.912 15.9069 236.697 16.252C236.489 16.597 236.385 16.9909 236.385 17.4336C236.385 17.7331 236.446 18.0065 236.57 18.2539C236.7 18.4948 236.899 18.7194 237.166 18.9277C237.439 19.1361 237.784 19.3281 238.201 19.5039C238.624 19.6797 239.129 19.849 239.715 20.0117C240.522 20.2396 241.219 20.4935 241.804 20.7734C242.39 21.0534 242.872 21.3691 243.25 21.7207C243.634 22.0658 243.917 22.4596 244.099 22.9023C244.288 23.3385 244.383 23.8333 244.383 24.3867C244.383 24.9661 244.265 25.4902 244.031 25.959C243.797 26.4277 243.461 26.8281 243.025 27.1602C242.589 27.4922 242.065 27.7493 241.453 27.9316C240.847 28.1074 240.17 28.1953 239.422 28.1953C238.764 28.1953 238.116 28.1042 237.478 27.9219C236.847 27.7396 236.271 27.4661 235.75 27.1016C235.235 26.737 234.822 26.2878 234.51 25.7539C234.204 25.2135 234.051 24.5885 234.051 23.8789H235.926C235.926 24.3672 236.02 24.7871 236.209 25.1387C236.398 25.4837 236.655 25.7702 236.98 25.998C237.312 26.2259 237.687 26.3952 238.103 26.5059C238.526 26.61 238.966 26.6621 239.422 26.6621C240.079 26.6621 240.636 26.571 241.092 26.3887C241.547 26.2064 241.892 25.946 242.127 25.6074C242.368 25.2689 242.488 24.8685 242.488 24.4062ZM248.67 13.7812V28H246.785V13.7812H248.67ZM257.254 13.7812L251.345 20.4121L248.025 23.8594L247.713 21.8477L250.213 19.0938L254.988 13.7812H257.254ZM255.437 28L250.174 21.0664L251.297 19.5723L257.683 28H255.437ZM261.365 13.7812V28H259.48V13.7812H261.365Z" fill="black"/>
<path d="M119.607 51.3496H116.004L115.984 49.8359H119.256C119.796 49.8359 120.268 49.7448 120.672 49.5625C121.075 49.3802 121.388 49.1198 121.609 48.7812C121.837 48.4362 121.951 48.026 121.951 47.5508C121.951 47.0299 121.85 46.6068 121.648 46.2812C121.453 45.9492 121.15 45.7083 120.74 45.5586C120.336 45.4023 119.822 45.3242 119.197 45.3242H116.424V58H114.539V43.7812H119.197C119.926 43.7812 120.577 43.8561 121.15 44.0059C121.723 44.1491 122.208 44.377 122.605 44.6895C123.009 44.9954 123.315 45.3861 123.523 45.8613C123.732 46.3366 123.836 46.9062 123.836 47.5703C123.836 48.1562 123.686 48.6868 123.386 49.1621C123.087 49.6309 122.67 50.015 122.136 50.3145C121.609 50.6139 120.991 50.806 120.281 50.8906L119.607 51.3496ZM119.519 58H115.261L116.326 56.4668H119.519C120.118 56.4668 120.626 56.3626 121.043 56.1543C121.466 55.946 121.788 55.653 122.01 55.2754C122.231 54.8913 122.342 54.4388 122.342 53.918C122.342 53.3906 122.247 52.9349 122.058 52.5508C121.87 52.1667 121.573 51.8704 121.17 51.6621C120.766 51.4538 120.245 51.3496 119.607 51.3496H116.922L116.941 49.8359H120.613L121.013 50.3828C121.697 50.4414 122.276 50.6367 122.752 50.9688C123.227 51.2943 123.588 51.7109 123.836 52.2188C124.09 52.7266 124.217 53.2865 124.217 53.8984C124.217 54.7839 124.021 55.5326 123.631 56.1445C123.247 56.75 122.703 57.2122 122 57.5312C121.297 57.8438 120.47 58 119.519 58ZM129.021 43.7812V58H127.136V43.7812H129.021ZM132.449 43.7812H137.156C138.224 43.7812 139.125 43.944 139.861 44.2695C140.603 44.5951 141.166 45.0768 141.551 45.7148C141.941 46.3464 142.136 47.1243 142.136 48.0488C142.136 48.6999 142.003 49.2956 141.736 49.8359C141.476 50.3698 141.098 50.8255 140.603 51.2031C140.115 51.5742 139.529 51.8509 138.845 52.0332L138.318 52.2383H133.894L133.875 50.7051H137.215C137.892 50.7051 138.455 50.5879 138.904 50.3535C139.353 50.1126 139.692 49.7904 139.92 49.3867C140.148 48.9831 140.261 48.5371 140.261 48.0488C140.261 47.502 140.154 47.0234 139.939 46.6133C139.724 46.2031 139.386 45.8874 138.924 45.666C138.468 45.4382 137.879 45.3242 137.156 45.3242H134.334V58H132.449V43.7812ZM140.76 58L137.302 51.5547L139.265 51.5449L142.771 57.8828V58H140.76ZM155.72 50.4414V51.3398C155.72 52.4076 155.587 53.3646 155.32 54.2109C155.053 55.0573 154.669 55.7767 154.168 56.3691C153.666 56.9616 153.064 57.4141 152.361 57.7266C151.664 58.0391 150.883 58.1953 150.017 58.1953C149.177 58.1953 148.406 58.0391 147.703 57.7266C147.006 57.4141 146.401 56.9616 145.886 56.3691C145.379 55.7767 144.985 55.0573 144.705 54.2109C144.425 53.3646 144.285 52.4076 144.285 51.3398V50.4414C144.285 49.3737 144.422 48.4199 144.695 47.5801C144.975 46.7337 145.369 46.0143 145.877 45.4219C146.385 44.8229 146.987 44.3672 147.683 44.0547C148.386 43.7422 149.158 43.5859 149.998 43.5859C150.864 43.5859 151.645 43.7422 152.342 44.0547C153.045 44.3672 153.647 44.8229 154.148 45.4219C154.656 46.0143 155.043 46.7337 155.31 47.5801C155.584 48.4199 155.72 49.3737 155.72 50.4414ZM153.855 51.3398V50.4219C153.855 49.5755 153.767 48.8268 153.592 48.1758C153.422 47.5247 153.172 46.9779 152.84 46.5352C152.508 46.0924 152.101 45.7572 151.619 45.5293C151.144 45.3014 150.603 45.1875 149.998 45.1875C149.412 45.1875 148.881 45.3014 148.406 45.5293C147.937 45.7572 147.534 46.0924 147.195 46.5352C146.863 46.9779 146.606 47.5247 146.424 48.1758C146.241 48.8268 146.15 49.5755 146.15 50.4219V51.3398C146.15 52.1927 146.241 52.9479 146.424 53.6055C146.606 54.2565 146.866 54.8066 147.205 55.2559C147.55 55.6986 147.957 56.0339 148.426 56.2617C148.901 56.4896 149.431 56.6035 150.017 56.6035C150.629 56.6035 151.173 56.4896 151.648 56.2617C152.123 56.0339 152.524 55.6986 152.849 55.2559C153.181 54.8066 153.432 54.2565 153.601 53.6055C153.771 52.9479 153.855 52.1927 153.855 51.3398Z" fill="black"/>
</svg>