<svg width="193" height="88" viewBox="0 0 193 88" fill="none" xmlns="http://www.w3.org/2000/svg">
<path d="M41.3572 48.25C41.3572 41.1738 40.5551 33.3467 42.0136 26.3679C43.8061 17.7915 52.1094 8.92116 60.8596 7.00227C68.6701 5.28944 65.2935 35.2102 65.236 36.0781C64.4904 47.3363 63.3595 57.916 59.8749 68.6824C58.9157 71.646 52.7725 87.5873 47.3747 77.0797C45.342 73.1226 43.6706 62.4006 43.6548 58.3705C43.6249 50.7688 45.3043 43.5059 49.0159 36.8166C52.8062 29.9855 80.7911 -3.92662 85.9966 18.1348C87.2558 23.4713 86.0557 29.2641 84.8752 34.4369C84.7778 34.8635 83.4382 40.524 82.2493 41.8768C81.524 42.7022 81.6615 39.7185 81.7296 38.6219C82.0986 32.6765 83.0392 25.7973 85.3949 20.2956C86.8836 16.8186 88.5444 15.3647 90.3183 20.1315C92.4344 25.8177 93.7557 37.9116 94.1477 43.3812C94.514 48.4922 94.6304 56.2421 93.8742 61.7075C93.7906 62.3112 93.6897 63.7529 93.1903 63.4033C92.5088 62.9263 92.7558 61.7732 92.7801 60.9416C92.8385 58.9338 92.9709 56.9054 93.4365 54.9514C95.4052 46.6898 102.204 37.3024 112.009 40.7007C115.387 41.8713 116.955 44.0792 118.163 47.2106C119.243 50.009 118.029 53.1471 117.616 48.7424C117.039 42.5784 118.346 35.8434 125.548 35.1755C125.902 35.1427 130.031 35.5326 130.855 35.3943C133.016 35.0314 134.921 32.23 136.572 31.0999C140.68 28.2868 144.354 28.3188 148.935 27.3253C152.952 26.4541 157.061 24.3621 160.997 23.1403" stroke="black" stroke-width="1.47704" stroke-linecap="round"/>
</svg>
